<svg width="100" height="100" viewBox="0 0 100 100" fill="none" xmlns="http://www.w3.org/2000/svg">
<path d="M75.0004 45.8343C75.0004 41.8385 72.1671 38.4968 68.4129 37.6926C69.9129 35.1885 70.8337 32.2926 70.8337 29.1676C70.8337 19.976 63.3587 12.501 54.1671 12.501C47.8504 12.501 42.4087 16.0718 39.5837 21.2676C36.7587 16.0718 31.3171 12.501 25.0004 12.501C15.8087 12.501 8.33374 19.976 8.33374 29.1676C8.33374 32.926 9.63374 36.3593 11.7379 39.151C10.6859 39.9198 9.82967 40.9254 9.23829 42.0864C8.64692 43.2475 8.33705 44.5313 8.33374 45.8343V79.1676C8.33374 83.7635 12.0712 87.501 16.6671 87.501H66.6671C71.2629 87.501 75.0004 83.7635 75.0004 79.1676V68.1801L91.6671 76.5135V47.3468L75.0004 55.6801V45.8343ZM54.1671 20.8343C58.7629 20.8343 62.5004 24.5718 62.5004 29.1676C62.5004 33.7635 58.7629 37.501 54.1671 37.501C49.5712 37.501 45.8337 33.7635 45.8337 29.1676C45.8337 24.5718 49.5712 20.8343 54.1671 20.8343ZM25.0004 20.8343C29.5962 20.8343 33.3337 24.5718 33.3337 29.1676C33.3337 33.7635 29.5962 37.501 25.0004 37.501C20.4046 37.501 16.6671 33.7635 16.6671 29.1676C16.6671 24.5718 20.4046 20.8343 25.0004 20.8343Z" fill="#AF77FF"/>
</svg>
