<svg width="100" height="100" viewBox="0 0 100 100" fill="none" xmlns="http://www.w3.org/2000/svg">
<path d="M49.9992 18.751C42.9971 18.7508 36.1521 20.8263 30.3291 24.715C24.5061 28.6038 19.9665 34.1313 17.2839 40.5992C14.6014 47.0671 13.8962 54.185 15.2576 61.0535C16.619 67.922 19.9858 74.2328 24.9325 79.1885C25.5015 79.7781 25.8161 80.5677 25.8086 81.387C25.8011 82.2064 25.4721 82.99 24.8924 83.5692C24.3128 84.1483 23.5288 84.4766 22.7094 84.4833C21.8901 84.49 21.1008 84.1747 20.5117 83.6052C16.6447 79.741 13.5784 75.1516 11.4884 70.1002C9.3985 65.0487 8.32604 59.6344 8.33255 54.1676C8.33255 31.1551 26.9867 12.501 49.9992 12.501C73.0117 12.501 91.6659 31.1551 91.6659 54.1676C91.6659 59.2968 90.7367 64.2093 89.0409 68.751H85.6242C87.2035 67.2897 88.4631 65.5172 89.3236 63.5452C90.1842 61.5732 90.627 59.4443 90.6242 57.2926C90.6283 54.8097 90.039 52.3617 88.9055 50.1526C87.772 47.9435 86.127 46.0373 84.1075 44.5926C82.0164 37.156 77.5522 30.6065 71.3949 25.9415C65.2375 21.2764 57.7242 18.7514 49.9992 18.751V18.751ZM59.3742 57.2926C59.3742 55.5093 59.6742 53.7926 60.2284 52.1926C59.7584 49.7581 58.4354 47.571 56.4972 46.0246C54.559 44.4781 52.1328 43.6738 49.6547 43.7561C47.1765 43.8385 44.809 44.8021 42.9777 46.4737C41.1465 48.1454 39.9716 50.4155 39.6642 52.8758C39.3569 55.3362 39.9372 57.8256 41.301 59.8964C42.6648 61.9671 44.7225 63.4835 47.1042 64.173C49.4859 64.8624 52.0355 64.6796 54.2945 63.6575C56.5536 62.6354 58.3739 60.841 59.4284 58.5968C59.3923 58.163 59.3742 57.7279 59.3742 57.2926V57.2926ZM45.8325 54.1676C45.8325 53.0626 46.2715 52.0028 47.0529 51.2214C47.8343 50.44 48.8941 50.001 49.9992 50.001C51.1043 50.001 52.1641 50.44 52.9455 51.2214C53.7269 52.0028 54.1659 53.0626 54.1659 54.1676C54.1659 55.2727 53.7269 56.3325 52.9455 57.1139C52.1641 57.8953 51.1043 58.3343 49.9992 58.3343C48.8941 58.3343 47.8343 57.8953 47.0529 57.1139C46.2715 56.3325 45.8325 55.2727 45.8325 54.1676ZM67.8409 43.401C69.7159 42.4301 71.82 41.8301 74.0492 41.6926C72.2486 38.2267 69.7197 35.1912 66.6359 32.7943C63.552 30.3974 59.9863 28.6959 56.1831 27.8064C52.38 26.917 48.4295 26.8606 44.6025 27.6413C40.7755 28.4219 37.1627 30.021 34.0117 32.329C30.8608 34.6369 28.2463 37.5991 26.3477 41.0123C24.449 44.4255 23.311 48.209 23.0118 52.1033C22.7125 55.9976 23.2592 59.9105 24.6141 63.5737C25.9691 67.2369 28.1003 70.5638 30.8617 73.326C31.1478 73.633 31.4928 73.8793 31.8761 74.0501C32.2595 74.2209 32.6733 74.3127 33.0929 74.3201C33.5125 74.3275 33.9293 74.2503 34.3184 74.0932C34.7075 73.936 35.061 73.7021 35.3577 73.4053C35.6544 73.1086 35.8884 72.7551 36.0456 72.366C36.2027 71.9769 36.2799 71.5601 36.2725 71.1405C36.2651 70.7209 36.1733 70.3071 36.0025 69.9237C35.8317 69.5404 35.5854 69.1954 35.2784 68.9093C33.1918 66.8251 31.5716 64.3216 30.5247 61.5644C29.4779 58.8073 29.0284 55.8593 29.206 52.9154C29.3836 49.9716 30.1841 47.099 31.5547 44.4876C32.9253 41.8763 34.8348 39.5857 37.1567 37.7673C39.4786 35.949 42.1602 34.6444 45.024 33.9397C47.8877 33.2351 50.8685 33.1465 53.7691 33.6799C56.6696 34.2132 59.4239 35.3563 61.8497 37.0335C64.2755 38.7108 66.3176 40.884 67.8409 43.4093V43.401ZM83.3325 49.426C82.262 48.2905 80.9705 47.386 79.5373 46.7683C78.1042 46.1507 76.5598 45.8328 74.9992 45.8343C72.3625 45.8348 69.8065 46.7447 67.7626 48.4104C65.7186 50.0762 64.3117 52.3959 63.7792 54.9783C63.2466 57.5607 63.621 60.2478 64.8391 62.5863C66.0573 64.9248 68.0447 66.7716 70.4661 67.8152C72.8875 68.8589 75.5948 69.0355 78.1313 68.3152C80.6677 67.595 82.8782 66.0219 84.3898 63.8615C85.9014 61.7011 86.6217 59.0854 86.4291 56.4557C86.2365 53.826 85.1428 51.3431 83.3325 49.426V49.426ZM60.4159 72.9176H60.3575C58.7101 72.933 57.1353 73.5983 55.9758 74.7687C54.8163 75.9392 54.1658 77.5201 54.1659 79.1676V81.251C54.1659 83.376 54.6825 85.5135 55.6784 87.5176C56.9396 90.0066 58.7871 92.1516 61.0617 93.7676C64.545 96.2885 69.2575 97.9176 75.0034 97.9176C88.0867 97.9176 95.8367 89.4635 95.8367 81.251V79.1676C95.8367 77.51 95.1782 75.9203 94.0061 74.7482C92.834 73.5761 91.2443 72.9176 89.5867 72.9176H60.42H60.4159Z" fill="#AF77FF"/>
</svg>
