<svg width="100" height="100" viewBox="0 0 100 100" fill="none" xmlns="http://www.w3.org/2000/svg">
<path d="M23.2296 8.64195C23.7601 8.89701 24.2077 9.29672 24.521 9.79503C24.8343 10.2933 25.0005 10.87 25.0004 11.4586C25.0004 14.9169 26.3004 16.9086 27.9296 19.3336L28.0504 19.5086C29.4337 21.5669 31.2504 24.2628 31.2504 28.1253C31.2504 32.0669 29.2629 35.5419 26.2337 37.6044C27.0296 38.2711 27.7337 39.0919 28.3421 40.0753C30.3254 43.2836 31.2504 48.1878 31.2504 55.2294C31.2504 62.3628 30.2921 70.9295 28.7296 77.7711C27.9546 81.1711 26.9921 84.3086 25.8462 86.6628C25.2754 87.8336 24.5796 88.9753 23.7212 89.8711C22.8629 90.7503 21.5421 91.6878 19.7921 91.6878C18.0421 91.6878 16.7212 90.7503 15.8671 89.8711C14.9971 88.918 14.2803 87.8357 13.7421 86.6628C12.5921 84.3044 11.6296 81.1711 10.8546 77.7669C9.22935 70.3617 8.38446 62.8066 8.33374 55.2253C8.33374 48.1836 9.25874 43.2836 11.2421 40.0753C11.8079 39.144 12.5198 38.3097 13.3504 37.6044C11.8036 36.5543 10.5376 35.1412 9.66313 33.4888C8.78861 31.8364 8.33218 29.9949 8.33374 28.1253C8.33374 26.5919 8.33374 23.9544 9.92958 20.5503C11.4921 17.217 14.4629 13.3878 19.9212 9.01695C20.3813 8.64897 20.936 8.41851 21.5213 8.35216C22.1067 8.28581 22.6989 8.38627 23.2296 8.64195V8.64195Z" fill="#AF77FF"/>
<path d="M41.6677 62.1544C39.4603 61.7842 37.313 61.117 35.2844 60.1711C35.3719 58.4794 35.4177 56.8211 35.4177 55.2294C35.4177 53.5378 35.3677 51.9211 35.2594 50.3794C37.1052 51.9003 39.2844 53.0294 41.6677 53.6419V43.7503C41.6677 42.0927 42.3262 40.503 43.4983 39.3309C44.6704 38.1588 46.2601 37.5003 47.9177 37.5003H62.5011C62.5015 34.3211 61.5926 31.2081 59.8816 28.5286C58.1707 25.8491 55.729 23.7148 52.8448 22.3776C49.9605 21.0404 46.7539 20.556 43.6034 20.9815C40.4528 21.4071 37.4897 22.7249 35.0636 24.7794C34.3427 21.3878 32.6677 18.9044 31.5969 17.3169L31.4302 17.0669C35.1738 14.428 39.5704 12.8681 44.1401 12.5577C48.7098 12.2473 53.277 13.1983 57.343 15.3067C61.4091 17.4152 64.8177 20.6002 67.1969 24.514C69.5761 28.4278 70.8344 32.92 70.8344 37.5003H85.4177C87.0753 37.5003 88.665 38.1588 89.8371 39.3309C91.0093 40.503 91.6677 42.0927 91.6677 43.7503V81.2503C91.6677 82.9079 91.0093 84.4976 89.8371 85.6697C88.665 86.8418 87.0753 87.5003 85.4177 87.5003H47.9177C46.2601 87.5003 44.6704 86.8418 43.4983 85.6697C42.3262 84.4976 41.6677 82.9079 41.6677 81.2503V62.1544ZM50.0011 62.1544V79.1669H83.3344V45.8336H69.4136C67.9241 50.0369 65.339 53.7659 61.9254 56.6353C58.5118 59.5046 54.3937 61.41 49.9969 62.1544H50.0011ZM60.2719 45.8336H50.0011V53.6419C52.1453 53.0866 54.1577 52.1102 55.921 50.7697C57.6843 49.4292 59.1633 47.7512 60.2719 45.8336V45.8336Z" fill="#AF77FF"/>
</svg>
