<svg width="100" height="100" viewBox="0 0 100 100" fill="none" xmlns="http://www.w3.org/2000/svg">
<path d="M83.3325 87.5002H16.6659C14.4557 87.5002 12.3361 86.6223 10.7733 85.0595C9.21049 83.4967 8.33252 81.377 8.33252 79.1669V20.8336C8.33252 18.6234 9.21049 16.5038 10.7733 14.941C12.3361 13.3782 14.4557 12.5002 16.6659 12.5002H83.3325C85.5427 12.5002 87.6623 13.3782 89.2251 14.941C90.7879 16.5038 91.6659 18.6234 91.6659 20.8336V79.1669C91.6659 81.377 90.7879 83.4967 89.2251 85.0595C87.6623 86.6223 85.5427 87.5002 83.3325 87.5002ZM16.6659 29.1669V79.1669H83.3325V29.1669H16.6659ZM61.2784 69.6127L55.3909 63.7252L64.9409 54.1669L55.3867 44.6127L61.2784 38.7211L76.7242 54.1669L61.2825 69.6086L61.2784 69.6127V69.6127ZM38.72 69.6127L23.2742 54.1669L38.72 38.7211L44.6117 44.6127L35.0575 54.1669L44.6075 63.7211L38.72 69.6086V69.6127V69.6127Z" fill="#AF77FF"/>
</svg>
