<svg width="118" height="118" viewBox="0 0 118 118" fill="none" xmlns="http://www.w3.org/2000/svg">
<circle cx="59" cy="59" r="59" fill="#747474"/>
<path d="M84.4921 35.6655C79.7109 33.5092 74.5859 31.9155 69.2265 31.0092C69.1788 31.0001 69.1294 31.006 69.0851 31.0261C69.0409 31.0463 69.004 31.0797 68.9796 31.1217C68.3234 32.2748 67.5921 33.778 67.0796 34.9655C61.3956 34.1162 55.6168 34.1162 49.9328 34.9655C49.3619 33.6494 48.7182 32.3662 48.0046 31.1217C47.9804 31.0792 47.9438 31.045 47.8997 31.0238C47.8556 31.0026 47.8061 30.9953 47.7578 31.003C42.4015 31.9092 37.2765 33.503 32.4921 35.6623C32.451 35.6796 32.4161 35.7091 32.3921 35.7467C22.6671 50.0436 20.0015 63.9873 21.3109 77.7561C21.3145 77.7898 21.325 77.8224 21.3416 77.852C21.3583 77.8815 21.3808 77.9074 21.4078 77.928C27.084 82.0605 33.4151 85.2086 40.1359 87.2405C40.1827 87.2549 40.2328 87.2548 40.2797 87.2404C40.3265 87.2259 40.3679 87.1976 40.3984 87.1592C41.8421 85.2217 43.1296 83.1748 44.2296 81.0248C44.2953 80.8998 44.2328 80.7498 44.1015 80.6998C42.0828 79.9396 40.1268 79.0222 38.2515 77.9561C38.2178 77.9369 38.1894 77.9096 38.1689 77.8766C38.1483 77.8437 38.1363 77.8062 38.1338 77.7675C38.1313 77.7288 38.1385 77.6901 38.1547 77.6548C38.1709 77.6195 38.1955 77.5888 38.2265 77.5655C38.6203 77.2748 39.014 76.9717 39.389 76.6686C39.4228 76.6413 39.4634 76.624 39.5065 76.6185C39.5495 76.6129 39.5932 76.6195 39.6328 76.6373C51.9046 82.1498 65.1953 82.1498 77.3234 76.6373C77.363 76.6184 77.4072 76.611 77.4509 76.616C77.4945 76.621 77.5359 76.6381 77.5703 76.6655C77.9453 76.9717 78.3359 77.2748 78.7328 77.5655C78.764 77.5884 78.7891 77.6186 78.8058 77.6536C78.8225 77.6886 78.8303 77.7271 78.8284 77.7658C78.8266 77.8045 78.8151 77.8422 78.7952 77.8754C78.7752 77.9086 78.7473 77.9363 78.714 77.9561C76.8453 79.0311 74.9015 79.9405 72.8609 80.6967C72.8295 80.7081 72.801 80.726 72.7771 80.7493C72.7533 80.7726 72.7347 80.8007 72.7225 80.8318C72.7104 80.8628 72.7051 80.8961 72.7068 80.9294C72.7086 80.9627 72.7174 80.9952 72.7328 81.0248C73.8578 83.1717 75.1453 85.2155 76.5609 87.1561C76.5903 87.1959 76.6313 87.2257 76.6783 87.2413C76.7253 87.257 76.7759 87.2578 76.8234 87.2436C83.5557 85.2175 89.8971 82.0679 95.5796 77.928C95.6074 77.9086 95.6306 77.8835 95.6479 77.8544C95.6651 77.8253 95.6759 77.7928 95.6796 77.7592C97.2421 61.8405 93.0609 48.0092 84.589 35.753C84.5682 35.7131 84.5339 35.6821 84.4921 35.6655ZM46.064 69.3717C42.3703 69.3717 39.3234 66.0311 39.3234 61.9342C39.3234 57.8342 42.3109 54.4967 46.064 54.4967C49.8453 54.4967 52.864 57.8623 52.8046 61.9342C52.8046 66.0342 49.8171 69.3717 46.064 69.3717V69.3717ZM70.9859 69.3717C67.289 69.3717 64.2453 66.0311 64.2453 61.9342C64.2453 57.8342 67.2296 54.4967 70.9859 54.4967C74.7671 54.4967 77.7859 57.8623 77.7265 61.9342C77.7265 66.0342 74.7703 69.3717 70.9859 69.3717V69.3717Z" fill="white"/>
</svg>
