<svg width="23" height="23" viewBox="0 0 23 23" fill="none" xmlns="http://www.w3.org/2000/svg">
<path fill-rule="evenodd" clip-rule="evenodd" d="M22.7191 0.281511C22.8083 0.37052 22.8791 0.47626 22.9274 0.592673C22.9757 0.709087 23.0006 0.833887 23.0006 0.959925C23.0006 1.08596 22.9757 1.21076 22.9274 1.32718C22.8791 1.44359 22.8083 1.54933 22.7191 1.63834L1.63845 22.719C1.45852 22.8989 1.21449 23 0.960032 23C0.705578 23 0.461545 22.8989 0.281618 22.719C0.101692 22.5391 0.000610352 22.295 0.000610352 22.0406C0.000610352 21.7861 0.101692 21.5421 0.281618 21.3622L21.3623 0.281511C21.4513 0.192276 21.557 0.121478 21.6734 0.0731715C21.7898 0.0248653 21.9146 0 22.0407 0C22.1667 0 22.2915 0.0248653 22.4079 0.0731715C22.5243 0.121478 22.6301 0.192276 22.7191 0.281511V0.281511Z" fill="black"/>
<path fill-rule="evenodd" clip-rule="evenodd" d="M0.281511 0.281511C0.192276 0.37052 0.121478 0.47626 0.0731715 0.592673C0.0248653 0.709087 0 0.833887 0 0.959925C0 1.08596 0.0248653 1.21076 0.0731715 1.32718C0.121478 1.44359 0.192276 1.54933 0.281511 1.63834L21.3622 22.719C21.5421 22.8989 21.7861 23 22.0406 23C22.295 23 22.5391 22.8989 22.719 22.719C22.8989 22.5391 23 22.295 23 22.0406C23 21.7861 22.8989 21.5421 22.719 21.3622L1.63834 0.281511C1.54933 0.192276 1.44359 0.121478 1.32718 0.0731715C1.21076 0.0248653 1.08596 0 0.959925 0C0.833887 0 0.709087 0.0248653 0.592673 0.0731715C0.47626 0.121478 0.37052 0.192276 0.281511 0.281511V0.281511Z" fill="black"/>
</svg>
