<svg width="66" height="65" viewBox="0 0 66 65" fill="none" xmlns="http://www.w3.org/2000/svg">
<path d="M40.9802 32.1316C40.9802 33.7204 40.5091 35.2734 39.6264 36.5944C38.7438 37.9154 37.4892 38.945 36.0214 39.553C34.5536 40.161 32.9384 40.3201 31.3802 40.0102C29.822 39.7002 28.3906 38.9351 27.2672 37.8117C26.1438 36.6883 25.3787 35.257 25.0688 33.6987C24.7588 32.1405 24.9179 30.5254 25.5259 29.0575C26.1339 27.5897 27.1635 26.3352 28.4845 25.4525C29.8055 24.5698 31.3586 24.0987 32.9473 24.0987C35.077 24.1012 37.1188 24.9483 38.6247 26.4542C40.1307 27.9601 40.9778 30.0019 40.9802 32.1316ZM58.0501 21.0864V43.1768C58.0459 46.9038 56.5635 50.477 53.9281 53.1123C51.2927 55.7477 47.7196 57.2302 43.9926 57.2344H21.9021C18.1751 57.2302 14.602 55.7477 11.9666 53.1123C9.33122 50.477 7.8488 46.9038 7.84454 43.1768V21.0864C7.8488 17.3594 9.33122 13.7863 11.9666 11.1509C14.602 8.51549 18.1751 7.03306 21.9021 7.02881H43.9926C47.7196 7.03306 51.2927 8.51549 53.9281 11.1509C56.5635 13.7863 58.0459 17.3594 58.0501 21.0864V21.0864ZM44.9967 32.1316C44.9967 29.7485 44.29 27.4189 42.966 25.4373C41.642 23.4558 39.7602 21.9115 37.5584 20.9995C35.3567 20.0875 32.934 19.8489 30.5966 20.3138C28.2593 20.7787 26.1123 21.9263 24.4272 23.6114C22.742 25.2966 21.5945 27.4436 21.1295 29.7809C20.6646 32.1182 20.9032 34.541 21.8152 36.7427C22.7272 38.9444 24.2716 40.8263 26.2531 42.1503C28.2346 43.4743 30.5642 44.1809 32.9473 44.1809C36.1419 44.1774 39.2046 42.9067 41.4635 40.6478C43.7225 38.3889 44.9931 35.3262 44.9967 32.1316V32.1316ZM49.0131 19.0782C49.0131 18.4824 48.8365 17.9 48.5055 17.4046C48.1745 16.9092 47.704 16.5231 47.1536 16.2951C46.6031 16.0671 45.9975 16.0075 45.4131 16.1237C44.8288 16.2399 44.292 16.5268 43.8708 16.9481C43.4495 17.3694 43.1626 17.9061 43.0463 18.4905C42.9301 19.0748 42.9898 19.6805 43.2178 20.2309C43.4458 20.7814 43.8319 21.2518 44.3272 21.5828C44.8226 21.9138 45.405 22.0905 46.0008 22.0905C46.7997 22.0905 47.5659 21.7731 48.1308 21.2082C48.6958 20.6433 49.0131 19.8771 49.0131 19.0782Z" fill="white"/>
</svg>
