<svg width="65" height="65" viewBox="0 0 65 65" fill="none" xmlns="http://www.w3.org/2000/svg">
<path d="M17.3408 56.2303H5.68304V18.6885H17.3408V56.2303ZM11.5049 13.5676C7.77762 13.5676 4.75323 10.4789 4.75323 6.75165C4.75323 4.961 5.46457 3.24369 6.73075 1.97751C7.99693 0.711332 9.71423 0 11.5049 0C13.2955 0 15.0128 0.711332 16.279 1.97751C17.5452 3.24369 18.2565 4.961 18.2565 6.75165C18.2565 10.4789 15.2321 13.5676 11.5049 13.5676ZM60.9715 56.2303H49.3398V37.9554C49.3398 33.5996 49.2515 28.0147 43.279 28.0147C37.2182 28.0147 36.2884 32.7461 36.2884 37.6421V56.2303H24.6427V18.6885H35.8225V23.8095H35.9851C37.5415 20.8594 41.3431 17.7467 47.0143 17.7467C58.8126 17.7467 60.9815 25.5165 60.9815 35.6078V56.2303H60.9715Z" fill="white"/>
</svg>
