<svg width="204" height="45" viewBox="0 0 204 45" fill="none" xmlns="http://www.w3.org/2000/svg">
<path d="M38.5952 0L19.2327 44.7387L0 0H15.2953L19.3625 13.2078L23.8537 0H38.5952Z" fill="#9D59FF"/>
<path d="M54.7025 0V44.7387H41.4916V0H54.7025Z" fill="#6800FF"/>
<path d="M96.1807 0L76.8182 44.7387L57.5854 0H72.8807L76.9479 13.2078L81.4392 0H96.1807Z" fill="#9D59FF"/>
<path d="M112.289 0V44.7387H99.077V0H112.289Z" fill="#6800FF"/>
<path d="M128.398 12.8477V44.7387H115.186V0H132.401C139.951 0 145.863 1.72628 150.137 5.17885C155.213 9.30769 157.751 14.9118 157.751 21.9911C157.751 28.7645 155.582 34.2928 151.243 38.5761C146.904 42.8595 141.318 45.0008 134.484 45C133.681 45 132.368 44.9565 130.545 44.8694V31.7263H132.661C140.362 31.7263 144.213 28.4816 144.214 21.9922C144.214 15.8959 140.428 12.8477 132.856 12.8477H128.398Z" fill="#6800FF"/>
<path d="M185.249 17.5052V27.5278H176.627C175.455 27.5278 174.625 27.7035 174.138 28.0549C173.651 28.4062 173.406 29 173.405 29.836C173.405 30.7812 173.654 31.4018 174.154 31.6979C174.653 31.994 175.673 32.1424 177.213 32.1432H186.101V45H175.725C170.843 45 167.112 43.819 164.53 41.4569C161.947 39.0949 160.657 35.6825 160.657 31.2196V13.5827C160.657 9.27513 161.878 5.93427 164.319 3.56011C166.759 1.18594 170.189 -0.000756946 174.608 3.62233e-07H186.101V12.9227H177.673C175.394 12.9227 174.255 13.6702 174.255 15.1651C174.255 16.0443 174.527 16.6543 175.07 16.9951C175.612 17.3359 176.578 17.5059 177.966 17.5052H185.249Z" fill="#6800FF"/>
<path d="M196.665 30.0552C198.669 30.0552 200.393 30.7867 201.837 32.2499C203.28 33.713 204.002 35.4548 204 37.4753C204 39.495 203.286 41.2107 201.857 42.6223C200.428 44.0339 198.699 44.7398 196.669 44.7398C194.563 44.7398 192.829 44.0544 191.466 42.6837C190.103 41.3129 189.422 39.5666 189.424 37.4446C189.424 35.3832 190.13 33.6365 191.543 32.2044C192.955 30.7723 194.662 30.0559 196.665 30.0552Z" fill="#9D59FF"/>
</svg>
