<svg width="65" height="65" viewBox="0 0 65 65" fill="none" xmlns="http://www.w3.org/2000/svg">
<path d="M53.559 16.5022C55.9593 15.0672 57.7553 12.8077 58.6117 10.1455C56.3562 11.4838 53.8885 12.4265 51.3152 12.9329C49.5796 11.097 47.2884 9.88283 44.7947 9.47766C42.301 9.07249 39.7432 9.49876 37.5157 10.6908C35.2882 11.8828 33.5146 13.7743 32.4682 16.0739C31.4219 18.3734 31.1609 20.9533 31.7256 23.4158C27.1572 23.1864 22.6882 21.999 18.6085 19.9305C14.5288 17.8621 10.9296 14.9589 8.04463 11.4093C6.57746 13.9399 6.1285 16.9341 6.78895 19.7838C7.44939 22.6335 9.16971 25.1249 11.6005 26.7521C9.77628 26.6935 7.99249 26.1996 6.39788 25.3116V25.4562C6.3984 28.1096 7.31667 30.6812 8.99696 32.7349C10.6773 34.7885 13.0161 36.1978 15.617 36.7236C13.9249 37.184 12.15 37.2518 10.4277 36.9218C11.1633 39.204 12.5931 41.1996 14.5176 42.63C16.442 44.0605 18.765 44.8545 21.1623 44.9011C17.0919 48.0959 12.065 49.8284 6.89057 49.8199C5.97214 49.8199 5.05639 49.7664 4.146 49.6619C9.40062 53.0384 15.5162 54.8306 21.7621 54.8244C26.064 54.854 30.3289 54.0284 34.309 52.3957C38.2892 50.7629 41.9052 48.3556 44.947 45.3135C47.9889 42.2714 50.3959 38.6552 52.0283 34.675C53.6607 30.6947 54.4859 26.4297 54.456 22.1279C54.456 21.6298 54.4453 21.1345 54.4212 20.6418C56.6717 19.0154 58.6139 17.0006 60.1567 14.6921C58.0601 15.6213 55.8363 16.2315 53.559 16.5022V16.5022Z" fill="white"/>
</svg>
